PathFileType	4	(X/Y/Z)	OpenSim_Sub04_CSBaseline_Magnet.trc
DataRate	CameraRate	NumFrames	NumMarkers	Units	OrigDataRate	OrigDataStartFrame	OrigNumFrames
100	100	16	8	m	100	3032	8083
Frame#	Time	torso_imu_offset_imu	pelvis_imu_offset_imu	tibia_r_imu_offset_imu	femur_r_imu_offset_imu	tibia_l_imu_offset_imu	femur_l_imu_offset_imu	toes_r_imu_offset_imu	toes_l_imu_offset_imu
				X1	Y1	Z1	X2	Y2	Z2	X3	Y3	Z3	X4	Y4	Z4	X5	Y5	Z5	X6	Y6	Z6	X7	Y7	Z7	X8		Y8	Z8	

3032	30.31000000	0.89764284	0.23192709	-0.18564366	-0.61882863	0.17994789	-0.65389460	-0.69570706	-0.32763592	-0.17224200	-0.79950010	-0.22767988	0.09252677	-0.48818592	0.60691448	0.25227228	-0.43360727	0.03369702	0.40733148	-0.64026066	-0.06511301	-0.49198705	-0.73217049	-0.30947781	-0.17442378
3033	30.32000000	0.89536502	0.22754536	-0.18834430	-0.61727259	0.17628207	-0.65347066	-0.68773607	-0.35303481	-0.16371598	-0.80184763	-0.22378939	0.09827745	-0.47629212	0.60723649	0.24986507	-0.42916200	0.03315304	0.40503247	-0.64721715	-0.06023958	-0.48189862	-0.73023178	-0.31265518	-0.16488312
3034	30.33000000	0.89680892	0.22880969	-0.19106692	-0.62328454	0.16794954	-0.65120336	-0.68384107	-0.36457527	-0.16205077	-0.79780399	-0.22310417	0.09933824	-0.46768413	0.61827944	0.25282418	-0.43174784	0.03609993	0.40500989	-0.65445110	-0.05791366	-0.47358808	-0.73315669	-0.31859515	-0.15059540
3035	30.34000000	0.89751395	0.22787048	-0.18688645	-0.62425676	0.16453772	-0.65010311	-0.67318348	-0.37044169	-0.15626483	-0.80175945	-0.22269715	0.10288202	-0.45691708	0.62824416	0.25287582	-0.43752452	0.04545994	0.40128036	-0.66771086	-0.05230494	-0.46067892	-0.73717169	-0.31439798	-0.13460960
3036	30.35000000	0.89746989	0.22361517	-0.19124697	-0.62531848	0.16347698	-0.65459036	-0.67255048	-0.37585760	-0.15346460	-0.79429106	-0.22810198	0.10775292	-0.44806503	0.63858482	0.25605466	-0.43772629	0.04537264	0.39639981	-0.67060900	-0.05407279	-0.44345906	-0.73248326	-0.31889408	-0.11696966
3037	30.36000000	0.89737053	0.22103484	-0.19682010	-0.63005177	0.15518755	-0.65514538	-0.67600148	-0.37374046	-0.14511895	-0.79700658	-0.23210821	0.11582040	-0.43645516	0.64834005	0.25689483	-0.44195934	0.05792596	0.39278172	-0.68112058	-0.06161333	-0.43255722	-0.73634701	-0.30961867	-0.09898600
3038	30.37000000	0.89781398	0.22024038	-0.19752878	-0.62631279	0.15312794	-0.65650616	-0.67212058	-0.37981687	-0.14359972	-0.78935747	-0.24210775	0.12697768	-0.41702850	0.65318886	0.25058061	-0.44434166	0.05345637	0.38134155	-0.69207953	-0.05869530	-0.41688923	-0.73496089	-0.31085716	-0.08110377
3039	30.38000000	0.89501470	0.22336409	-0.19662564	-0.62854730	0.14086758	-0.65932353	-0.67105765	-0.39071974	-0.13649971	-0.78018561	-0.24691540	0.12383492	-0.40028961	0.66016310	0.24549296	-0.44862623	0.06015688	0.38032311	-0.70496401	-0.06009252	-0.40332875	-0.73777085	-0.31638597	-0.06150879
3040	30.39000000	0.90095496	0.21570998	-0.20281435	-0.63195945	0.14318513	-0.65351088	-0.66765549	-0.39919222	-0.12578816	-0.78339319	-0.25455724	0.12846650	-0.38778768	0.67719906	0.25305896	-0.45101088	0.05470715	0.37100357	-0.70848587	-0.06108663	-0.39150816	-0.74064682	-0.31756771	-0.03655917
3041	30.40000000	0.90200905	0.21652155	-0.20185483	-0.63065441	0.13537323	-0.65166567	-0.66246050	-0.40985475	-0.12556424	-0.78112754	-0.25842833	0.13499601	-0.36920147	0.68816232	0.24866911	-0.45471147	0.05078600	0.36333766	-0.71310530	-0.07571371	-0.37636149	-0.74179191	-0.31360095	-0.00256747
3042	30.41000000	0.90375193	0.21101013	-0.20295518	-0.62514662	0.13039394	-0.65184245	-0.66050767	-0.41535978	-0.11180576	-0.77572390	-0.25660048	0.13344589	-0.35002341	0.69583676	0.24154917	-0.46075421	0.04580782	0.35358244	-0.71869173	-0.08761461	-0.36794750	-0.73564308	-0.31302784	0.02121277
3043	30.42000000	0.90448111	0.21371955	-0.20335305	-0.63210676	0.13315975	-0.65322384	-0.65267274	-0.43378170	-0.10236500	-0.77801653	-0.25451940	0.13333991	-0.33761502	0.70964411	0.24453414	-0.46861937	0.03527825	0.33962779	-0.71421083	-0.09647910	-0.36624958	-0.73458060	-0.31012408	0.05169710
3044	30.43000000	0.90203795	0.21202314	-0.20700453	-0.63563477	0.12833109	-0.65820946	-0.64477102	-0.43656887	-0.09575097	-0.77236677	-0.25244424	0.14652868	-0.31445575	0.71273181	0.24344250	-0.47882652	0.02498118	0.33191497	-0.72083890	-0.09725476	-0.35687939	-0.73280132	-0.30220040	0.09258001
3045	30.44000000	0.90454675	0.20262171	-0.20801265	-0.63753474	0.12344444	-0.65691378	-0.64472953	-0.44430543	-0.09085562	-0.77539713	-0.25118097	0.15044756	-0.29522943	0.72419262	0.23808383	-0.49165996	0.02270829	0.32429141	-0.72279582	-0.10308288	-0.34930537	-0.73378788	-0.29305116	0.12649142
3046	30.45000000	0.90062698	0.20521941	-0.20544697	-0.63822640	0.13413261	-0.65475782	-0.63653547	-0.45582230	-0.08534831	-0.77092082	-0.25881757	0.15685192	-0.27865207	0.73440478	0.23551147	-0.50379205	0.01162540	0.30915297	-0.72238343	-0.10057069	-0.34500710	-0.72565527	-0.28733690	0.16832983
3047	30.46000000	0.90354113	0.20469836	-0.20905233	-0.63810318	0.12796398	-0.65180913	-0.63550608	-0.46267582	-0.08687483	-0.76571637	-0.26305263	0.15899003	-0.25465370	0.74151947	0.24555349	-0.50752387	-0.00108162	0.30037962	-0.72214247	-0.10136531	-0.34109350	-0.72512889	-0.27096336	0.20220034
